<svg width="119" height="20" viewBox="0 0 119 20" fill="none" xmlns="http://www.w3.org/2000/svg">
<path d="M88.808 12.5629C88.9412 12.5244 89.0466 12.4941 89.1547 12.4676C91.1503 11.9806 92.353 10.6947 92.633 8.74913C92.8243 7.41873 92.8609 5.97713 92.7418 4.46413C92.6565 3.37813 92.2781 2.46413 91.6176 1.74763C90.9691 1.04423 90.0828 0.566429 88.9825 0.327729C88.4236 0.206329 87.8026 0.149029 87.0285 0.146929C82.9905 0.136429 78.885 0.137529 74.9148 0.138529C73.6946 0.138829 72.4749 0.139329 71.255 0.139329H70.4132V19.8197H74.9853V12.7295L75.1397 12.6895L84.1789 12.8732L88.3247 19.8234L88.3532 19.8713L93.166 19.8574L88.7028 12.5929C88.7394 12.5824 88.7745 12.5723 88.808 12.5629ZM74.9957 4.30633C75.0357 4.30373 75.075 4.30113 75.1142 4.29823C75.2592 4.28833 75.3958 4.27883 75.5326 4.27883H75.6606C79.1527 4.27673 82.7636 4.27493 86.3154 4.27883C87.7486 4.28043 88.2322 4.76893 88.2317 6.21503L88.232 6.43723C88.2323 6.55763 88.2323 6.67773 88.232 6.79783C88.2286 8.00103 87.7343 8.51653 86.5787 8.52123C83.7123 8.53273 80.7977 8.53063 77.9791 8.52853C77.0564 8.52773 76.1343 8.52723 75.2118 8.52693C75.1647 8.52693 75.1152 8.51963 75.0467 8.50963C75.0307 8.50733 75.0137 8.50493 74.9957 8.50233V4.30633Z" fill="#111111"/>
<path d="M21.4961 10.3127C20.8872 9.56853 19.9682 9.09643 18.7647 8.90963C16.872 8.61583 14.9379 8.38443 13.0674 8.16093C12.2528 8.06333 11.4102 7.96263 10.5825 7.85823L5.621 7.23093C5.0828 7.16283 4.7438 6.89103 4.6138 6.42313C4.4212 5.73073 4.4644 5.19423 4.7423 4.82843C5.0197 4.46343 5.5226 4.27843 6.2375 4.27813C9.6038 4.27683 12.9703 4.27703 16.3365 4.27733H21.182V0.139129H20.2876C19.2415 0.139129 18.1952 0.138629 17.1493 0.138129C14.66 0.137029 12.0858 0.135729 9.554 0.141729L8.9074 0.142829C7.3703 0.145729 5.7809 0.148329 4.2189 0.204329C3.0324 0.246729 2.0247 0.630828 1.3043 1.31543C0.584695 1.99923 0.150595 2.98383 0.0490953 4.16333C-0.0121047 4.87323 -0.00250473 5.59913 0.00699527 6.30123C0.00989527 6.49883 0.0124953 6.69663 0.0135953 6.89393C0.0200953 8.04063 0.295095 8.96933 0.830495 9.65383C1.3777 10.3528 2.2158 10.8224 3.3214 11.0496C4.6457 11.3215 6.0125 11.4897 7.3345 11.6522C7.7474 11.7032 8.1745 11.7555 8.5937 11.8105C10.3226 12.0371 12.0814 12.2583 13.7826 12.4723C14.7807 12.598 15.7787 12.7235 16.7765 12.8507C17.3279 12.9211 17.6408 13.1548 17.7617 13.5865C17.949 14.2562 17.908 14.7782 17.64 15.1385C17.3697 15.5017 16.8749 15.6922 16.1691 15.7053C16.0485 15.7074 15.9254 15.7069 15.8064 15.7066C15.7543 15.7063 15.7022 15.7061 15.6504 15.7061H0.362195V19.8576C0.951895 19.8577 7.9412 19.8579 8.5351 19.8579C11.4505 19.8579 14.3894 19.8566 17.299 19.8521C17.7245 19.8513 18.1866 19.8081 18.6723 19.7238C21.0034 19.3195 22.3963 17.6629 22.3989 15.2925C22.3997 14.6223 22.3997 13.9519 22.3989 13.2817C22.3974 12.0419 22.0935 11.043 21.4961 10.3127Z" fill="#111111"/>
<path d="M106.4 9.89253L118.755 0.241529L118.535 0.205129C118.453 0.191829 118.39 0.179729 118.339 0.170029C118.253 0.153529 118.196 0.142529 118.136 0.142529C117.755 0.142029 117.374 0.141229 116.993 0.140429C115.406 0.137329 113.765 0.133929 112.152 0.153229C111.855 0.156929 111.539 0.321529 111.342 0.474529C109.217 2.12783 107.064 3.81693 104.981 5.45093C104.205 6.05983 103.429 6.66853 102.652 7.27723C102.294 7.55723 101.928 7.83773 101.54 8.13503C101.395 8.24603 101.246 8.36063 101.091 8.47963V0.191729H96.5157V19.8049H101.128V11.3011L101.132 11.304C101.206 11.3529 101.259 11.3883 101.306 11.4259C102.073 12.0409 102.84 12.6563 103.606 13.2718C106.138 15.304 108.756 17.4056 111.341 19.459C111.626 19.6851 112.034 19.8353 112.38 19.8413C113.304 19.8578 114.237 19.8625 115.163 19.8625C115.768 19.8625 116.369 19.8604 116.962 19.8586C117.343 19.8573 117.723 19.856 118.104 19.8552C118.196 19.8552 118.284 19.8385 118.395 19.8175C118.451 19.807 118.514 19.795 118.586 19.7837L118.807 19.7494L106.4 9.89253Z" fill="#111111"/>
<path d="M45.2192 0.188629H23.3178V4.27683H31.93V19.8267H36.5518V4.27323H45.2192V0.188629Z" fill="#111111"/>
<path d="M67.8969 19.7201C67.8708 19.6594 67.849 19.6055 67.8294 19.5565C67.7922 19.4639 67.7601 19.3838 67.7192 19.3079L66.8996 17.7857C63.8673 12.1541 60.7318 6.33103 57.6288 0.613829C57.5058 0.386629 57.1374 0.169529 56.8563 0.158229C56.2676 0.134629 55.6688 0.137029 55.09 0.139129C54.6025 0.140929 54.0987 0.142729 53.6039 0.129429C53.1418 0.116329 52.877 0.271728 52.6566 0.682828C50.2225 5.21903 47.7378 9.82643 45.3351 14.2821C44.4485 15.926 43.562 17.5701 42.6759 19.2145C42.6225 19.3134 42.583 19.4157 42.5375 19.5343C42.5153 19.5926 42.4912 19.6549 42.4635 19.7224L42.4078 19.8574H42.5541C42.9272 19.8574 43.2964 19.8582 43.6623 19.8593C44.0276 19.86 44.3867 19.8608 44.7417 19.8608C45.5424 19.8608 46.3235 19.8566 47.1128 19.8396C47.3438 19.8344 47.634 19.6012 47.7502 19.3948C48.2686 18.4752 48.7896 17.4921 49.2988 16.4728C49.4367 16.1972 49.59 16.1033 49.9048 16.1033L49.9106 16.1036C53.6539 16.1172 57.0794 16.1167 60.3833 16.102C60.7183 16.0997 60.885 16.2033 61.0409 16.5092C61.5112 17.4327 62.0267 18.3939 62.573 19.3663C62.6777 19.5531 62.915 19.8326 63.1388 19.8373C64.3242 19.8624 65.491 19.8601 66.7264 19.8577C67.0837 19.8572 67.4437 19.8564 67.8069 19.8564H67.955L67.8969 19.7201ZM55.1814 10.7453L50.843 12.7596L55.1814 4.01533L59.5198 12.7596L55.1814 10.7453Z" fill="#111111"/>
</svg>